<?xml version="1.0" encoding="UTF-8" standalone="no" ?>
<!DOCTYPE svg PUBLIC "-//W3C//DTD SVG 1.1//EN" "http://www.w3.org/Graphics/SVG/1.1/DTD/svg11.dtd">
<svg xmlns="http://www.w3.org/2000/svg" xmlns:xlink="http://www.w3.org/1999/xlink" version="1.1" width="400" height="400" viewBox="0 0 400 400" xml:space="preserve">
<desc>Created with Fabric.js 3.6.2</desc>
<defs>
</defs>
<g transform="matrix(2.88 0 0 2.88 199.99 199.99)" id="Layer_1-2"  >
<circle style="stroke: none; stroke-width: 1; stroke-dasharray: none; stroke-linecap: butt; stroke-dashoffset: 0; stroke-linejoin: miter; stroke-miterlimit: 4; fill: rgb(255,255,255); fill-rule: nonzero; opacity: 1;"  cx="0" cy="0" r="34.72" />
</g>
<g transform="matrix(2.88 0 0 2.88 166.44 214.85)" id="Layer_1-2"  >
<rect style="stroke: none; stroke-width: 1; stroke-dasharray: none; stroke-linecap: butt; stroke-dashoffset: 0; stroke-linejoin: miter; stroke-miterlimit: 4; fill: rgb(0,0,0); fill-rule: nonzero; opacity: 1;"  x="-3.19" y="-10.31" rx="0" ry="0" width="6.38" height="20.62" />
</g>
<g transform="matrix(2.88 0 0 2.88 166.32 166.41)" id="Layer_1-2"  >
<path style="stroke: none; stroke-width: 1; stroke-dasharray: none; stroke-linecap: butt; stroke-dashoffset: 0; stroke-linejoin: miter; stroke-miterlimit: 4; fill: rgb(0,0,0); fill-rule: nonzero; opacity: 1;"  transform=" translate(-23.03, -23.06)" d="M 23 26.87 a 3.81 3.81 0 1 0 -3.78 -3.81 A 3.79 3.79 0 0 0 23 26.87 Z" stroke-linecap="round" />
</g>
<g transform="matrix(2.88 0 0 2.88 215.94 213.94)" id="Layer_1-2"  >
<path style="stroke: none; stroke-width: 1; stroke-dasharray: none; stroke-linecap: butt; stroke-dashoffset: 0; stroke-linejoin: miter; stroke-miterlimit: 4; fill: rgb(0,0,0); fill-rule: nonzero; opacity: 1;"  transform=" translate(-40.26, -39.56)" d="M 36.47 39.37 c 0 -2.9 1.33 -4.63 3.88 -4.63 c 2.35 0 3.48 1.66 3.48 4.63 V 50.19 h 6.35 V 37.13 c 0 -5.52 -3.13 -8.19 -7.5 -8.19 a 7.19 7.19 0 0 0 -6.21 3.41 V 29.57 H 30.34 V 50.19 h 6.13 Z" stroke-linecap="round" />
</g>
</svg>